<?xml version="1.0" standalone="no"?>
<!DOCTYPE svg PUBLIC "-//W3C//DTD SVG 20010904//EN"
 "http://www.w3.org/TR/2001/REC-SVG-20010904/DTD/svg10.dtd">
<svg version="1.0" xmlns="http://www.w3.org/2000/svg"
 width="700.000000pt" height="700.000000pt" viewBox="0 0 700.000000 700.000000"
 preserveAspectRatio="xMidYMid meet">
<metadata>
Created by potrace 1.11, written by Peter Selinger 2001-2013
</metadata>
<g transform="translate(0.000000,700.000000) scale(0.100000,-0.100000)"
fill="#000000" stroke="none">
<path d="M737 6468 c-78 -17 -149 -75 -189 -157 l-23 -46 0 -2765 0 -2765 24
-49 c30 -61 76 -107 137 -137 l49 -24 2765 0 2765 0 48 24 c58 28 109 80 140
141 l22 45 0 2765 0 2765 -23 46 c-30 61 -86 116 -142 143 l-45 21 -2745 1
c-1510 0 -2762 -3 -2783 -8z m5562 -71 c45 -25 80 -63 102 -112 18 -39 19
-140 19 -2783 0 -2455 -2 -2747 -16 -2780 -20 -49 -70 -100 -119 -123 -39 -18
-132 -19 -2785 -19 -2637 0 -2747 1 -2785 19 -52 24 -101 74 -120 125 -14 37
-15 335 -13 2791 3 2538 4 2752 20 2780 24 45 68 85 113 106 39 18 139 19
2795 16 2657 -2 2756 -3 2789 -20z"/>
<path d="M3398 5195 c-2 -2 -21 -5 -43 -8 -345 -43 -669 -289 -810 -614 -41
-96 -73 -216 -81 -303 -3 -36 -7 -70 -9 -76 -2 -6 1 -17 6 -25 10 -17 156 -21
162 -5 2 6 5 34 6 61 8 180 104 393 237 530 168 173 365 262 599 270 258 10
482 -80 664 -264 136 -139 234 -355 242 -536 1 -28 4 -55 6 -62 6 -14 155 -13
165 1 6 10 5 31 -7 124 -31 239 -137 447 -315 620 -123 119 -316 227 -461 258
-13 2 -46 9 -74 15 -44 9 -280 21 -287 14z"/>
<path d="M1323 3788 l2 -83 2176 -2 2176 -2 -1 82 -1 82 -2177 3 -2176 2 1
-82z"/>
<path d="M2885 3340 c-1 -3 -2 -349 -1 -770 l1 -765 83 -2 82 -1 0 768 0 768
-81 4 c-45 2 -82 1 -84 -2z"/>
<path d="M3978 3342 l-28 -3 0 -768 0 -768 83 1 82 1 1 767 1 766 -56 4 c-31
2 -68 2 -83 0z"/>
<path d="M1816 2587 c1 -413 2 -760 3 -769 1 -14 13 -17 81 -16 44 0 81 3 81
7 1 3 2 349 3 769 l1 762 -85 0 -85 0 1 -753z"/>
<path d="M5019 3333 c-1 -5 -2 -351 -3 -770 l-1 -762 83 1 c45 1 83 4 83 7 1
3 2 349 3 769 l1 762 -82 0 c-46 0 -84 -3 -84 -7z"/>
</g>
</svg>
